<svg width="77" height="51" viewBox="0 0 77 51" fill="none" xmlns="http://www.w3.org/2000/svg">
<path d="M25.1367 27.2734C18.1713 27.2734 12.5 21.6068 12.5 14.6367C12.5 7.66652 18.1665 2 25.1367 2C32.1068 2 37.7733 7.66652 37.7733 14.6367C37.7733 21.6068 32.1068 27.2734 25.1367 27.2734Z" stroke="#133599" stroke-width="2.141" stroke-linecap="round" stroke-linejoin="round"/>
<path d="M2 49.2543C2 39.8339 9.6648 32.1738 19.0804 32.1738H31.974C41.3944 32.1738 49.0545 39.8386 49.0545 49.2543" stroke="#133599" stroke-width="2.141" stroke-linecap="round" stroke-linejoin="round"/>
<path d="M61.9479 22.4158C61.9479 20.0416 60.0067 18.0957 57.6278 18.0957H47.6746C45.3004 18.0957 43.3545 20.0369 43.3545 22.4158C43.3545 24.7899 45.2957 26.7358 47.6746 26.7358H55.1871" stroke="#06F4B6" stroke-width="2.141" stroke-linecap="round" stroke-linejoin="round"/>
<path d="M57.6278 3.0332H47.6793C45.2934 3.0332 43.3593 4.9663 43.3593 7.3509C43.3593 9.73549 45.2934 11.6686 47.6793 11.6686H57.6278C60.0137 11.6686 61.9479 9.73549 61.9479 7.3509C61.9479 4.9663 60.0137 3.0332 57.6278 3.0332Z" stroke="#133599" stroke-width="2.141" stroke-linecap="round" stroke-linejoin="round"/>
<path d="M60.3877 27.0844L65.488 32.1753L75.7601 21.8984" stroke="#06F4B6" stroke-width="2.141" stroke-linecap="round" stroke-linejoin="round"/>
</svg>
