<svg width="48" height="50" viewBox="0 0 48 50" fill="none" xmlns="http://www.w3.org/2000/svg">
<path d="M35.5805 25.884C34.9967 25.884 34.5225 25.4066 34.5225 24.819V16.1054L12.9459 6.10641C12.4143 5.85985 12.185 5.23032 12.43 4.69523C12.6749 4.16013 13.3003 3.92931 13.8319 4.17587L36.0235 14.4581C36.3987 14.6312 36.6384 15.0089 36.6384 15.4234V24.819C36.6384 25.4066 36.1642 25.884 35.5805 25.884Z" fill="#06F4B6"/>
<path d="M23.9531 21.6295C23.802 21.6295 23.6508 21.598 23.5101 21.5298L0.614985 10.8961C0.229317 10.7177 -0.015634 10.319 1.13458e-06 9.89409C0.0156363 9.46916 0.281434 9.09145 0.677526 8.93407L23.5779 0.0735071C23.8228 -0.0209216 24.099 -0.0209216 24.344 0.0735071L47.3277 9.20686C47.7238 9.36424 47.9844 9.74196 47.9948 10.1721C48.0052 10.6023 47.7603 10.9905 47.3694 11.1689L24.3857 21.5403C24.2502 21.6033 24.099 21.6347 23.9531 21.6347V21.6295ZM3.77329 10.02L23.9635 19.3999L44.2215 10.2613L23.9479 2.2034L3.77329 10.02Z" fill="#133599"/>
<path d="M23.9531 50.0001C23.802 50.0001 23.6508 49.9686 23.5101 49.9004L0.614984 39.2614C0.0833876 39.0149 -0.145928 38.3854 0.0990228 37.8503C0.343974 37.3152 0.969381 37.0843 1.50098 37.3309L23.9635 47.7653L46.5094 37.5932C47.041 37.3519 47.6665 37.5932 47.9062 38.1283C48.1459 38.6634 47.9062 39.2929 47.3746 39.5342L24.3909 49.9057C24.2554 49.9686 24.1042 50.0001 23.9583 50.0001H23.9531Z" fill="#133599"/>
<path d="M46.8534 33.8266C46.2697 33.8266 45.7954 33.3492 45.7954 32.7616V10.4607C45.7954 9.87314 46.2697 9.39575 46.8534 9.39575C47.4371 9.39575 47.9114 9.87314 47.9114 10.4607V32.7616C47.9114 33.3492 47.4371 33.8266 46.8534 33.8266Z" fill="#133599"/>
<path d="M23.9531 49.8216C23.3694 49.8216 22.8951 49.3442 22.8951 48.7567V20.5645C22.8951 19.9769 23.3694 19.4995 23.9531 19.4995C24.5368 19.4995 25.0111 19.9769 25.0111 20.5645V48.7567C25.0111 49.3442 24.5368 49.8216 23.9531 49.8216Z" fill="#133599"/>
</svg>
