<svg width="56" height="51" viewBox="0 0 56 51" fill="none" xmlns="http://www.w3.org/2000/svg">
<path d="M50.1067 11.3027L42.9126 47.7397C42.5721 49.1217 42.0574 49.6892 41.0076 49.6892H14.444C13.3902 49.6892 12.7781 48.9029 12.539 47.7397L5.38135 11.3027" stroke="#133599" stroke-width="1.82387" stroke-linecap="round" stroke-linejoin="round"/>
<path d="M51.1484 1H4.25867C2.45896 1 1 2.45895 1 4.25866C1 6.05836 2.45896 7.51731 4.25867 7.51731H51.1484C52.9481 7.51731 54.407 6.05836 54.407 4.25866C54.407 2.45895 52.9481 1 51.1484 1Z" stroke="#06F4B6" stroke-width="1.82387" stroke-linecap="round" stroke-linejoin="round"/>
<path d="M20.2074 49.6892L16.1544 11.3027" stroke="#133599" stroke-width="1.82387" stroke-linecap="round" stroke-linejoin="round"/>
<path d="M27.742 49.6892V11.3027" stroke="#133599" stroke-width="1.82387" stroke-linecap="round" stroke-linejoin="round"/>
<path d="M9.2923 26.7449H46.6169" stroke="#133599" stroke-width="1.82387" stroke-linecap="round" stroke-linejoin="round"/>
<path d="M6.77142 15.2712H49.1177" stroke="#133599" stroke-width="1.82387" stroke-linecap="round" stroke-linejoin="round"/>
<path d="M11.4122 38.2153H44.7729" stroke="#133599" stroke-width="1.82387" stroke-linecap="round" stroke-linejoin="round"/>
<path d="M35.2766 49.6892L39.3296 11.3027" stroke="#133599" stroke-width="1.82387" stroke-linecap="round" stroke-linejoin="round"/>
</svg>
