<svg width="133" height="44" viewBox="0 0 133 44" fill="none" xmlns="http://www.w3.org/2000/svg">
<mask id="mask0_1_97" style="mask-type:alpha" maskUnits="userSpaceOnUse" x="0" y="0" width="133" height="44">
<path d="M0 0H132.266V43.8047H0V0Z" fill="white"/>
</mask>
<g mask="url(#mask0_1_97)">
<path fill-rule="evenodd" clip-rule="evenodd" d="M120.033 31.5476H114.952C113.742 31.5476 112.76 30.3554 112.76 29.1328V16.6533H110.469V31.5476H103.097V16.6533V14.339H117.841C119.065 14.3776 120.033 15.3971 120.033 16.6533V31.5476ZM96.3837 13.4328C94.0428 13.4328 92.1462 12.126 92.1462 10.5142C92.1462 8.90234 94.0428 7.5949 96.3837 7.5949C98.7201 7.5949 100.617 8.90234 100.617 10.5142C100.617 12.126 98.7201 13.4328 96.3837 13.4328ZM100.117 31.5476H95.037C93.8264 31.5476 92.7462 30.5573 92.7462 29.334V29.1328V14.339H100.117V31.5476ZM89.5611 31.5476H84.482C83.2695 31.5476 82.2899 30.6572 82.2899 29.4346V29.1328V7.5949H89.5611V31.5476ZM79.3877 29.1328C79.3877 30.3554 78.4049 31.5476 77.1943 31.5476H64.7439C63.5333 31.5476 62.5505 30.3554 62.5505 29.1328V16.5394C62.5505 15.3161 63.5333 14.3251 64.7439 14.3251H77.2943C78.5055 14.3251 79.3877 15.518 79.3877 16.74V29.1328ZM53.3048 31.5476L50.3153 27.1197V31.5476H42.9428V7.5949H50.3153V20.075L56.5905 14.339H60.2767L53.9009 20.075L60.9754 31.5476H53.3048ZM36.1886 13.4328C33.8509 13.4328 31.9556 12.126 31.9556 10.5142C31.9556 8.9017 33.8509 7.5949 36.1886 7.5949C38.5275 7.5949 40.4222 8.9017 40.4222 10.5142C40.4222 12.126 38.5275 13.4328 36.1886 13.4328ZM39.7261 31.5476H34.7204C33.4136 31.5476 32.353 30.4528 32.353 29.1328V14.339H39.7261V31.5476ZM29.1698 31.5476H24.0901C22.8782 31.5476 21.7992 30.3554 21.7992 29.1328V16.6533H19.6058V38.2905H12.2346V14.339H26.9796C28.1889 14.339 29.1698 15.43 29.1698 16.6533V31.5476ZM127.153 -0.103516H5.11519C2.29022 -0.103516 0 2.18608 0 5.01104V38.5866C0 41.4116 2.29022 43.7012 5.11519 43.7012H127.153C129.976 43.7012 132.267 41.4116 132.267 38.5866V5.01104C132.267 2.18608 129.976 -0.103516 127.153 -0.103516V-0.103516Z" fill="#E4002B"/>
</g>
</svg>
